<svg
  viewBox="0 0 176 203"
  version="1.1"
  xmlns="http://www.w3.org/2000/svg"
  xmlns:xlink="http://www.w3.org/1999/xlink"
>
  <g
    transform="translate(88.500000, 102.000000) rotate(30.000000) translate(-88.500000, -102.000000) translate(-13.000000, 14.000000)"
  >
    <path d="M50.518,175.535 L151.556,175.535 L202.071,88.035 L151.556,0.535 L50.518,0.535 L7.10542736e-15,88.035 L50.518,175.535 Z M59.178,15.535 L142.896,15.535 L184.75,88.035 L142.896,160.535 L59.178,160.535 L17.32,88.035 L59.178,15.535 Z"/>
    <g
      transform="translate(101.035500, 88.035000) rotate(-30.000000) translate(-101.035500, -88.035000) translate(55.535500, 49.035000)"
    >
      <path d="M3.43731757,16.3520594 C1.1456509,18.5865878 2.13162821e-14,21.2611563 2.13162821e-14,24.3752312 L2.13162821e-14,66.6249466 C2.13162821e-14,69.7402666 1.1456509,72.4148351 3.43731757,74.6486521 C5.72916667,76.8835362 8.47234384,78 11.6668491,78 L15,78 L15,13 L11.6668491,13 C8.47161413,13 5.72861938,14.117531 3.43731757,16.3520594 L3.43731757,16.3520594 Z" />
      <path d="M65.4992663,4.8747999 C65.4992663,3.52052083 65.0256158,2.36972157 64.0774254,1.42169065 C63.1303021,0.473659727 61.9786359,-5.68434189e-14 60.6249166,-5.68434189e-14 L31.3749055,-5.68434189e-14 C30.0210084,-5.68434189e-14 28.8700536,0.473659727 27.9218632,1.42169065 C26.9738506,2.36918797 26.5000222,3.52034296 26.5000222,4.8747999 L26.5000222,12.999585 L20,12.999585 L20,78 L72,78 L72,12.999585 L65.4992663,12.999585 L65.4992663,4.8747999 Z M58.9997777,12.999585 L32.9998666,12.999585 L32.9998666,6.49979249 L58.9997777,6.49979249 L58.9997777,12.999585 Z" />
      <path d="M87.5628078,16.3520594 C85.2710424,14.1177089 82.5277828,13 79.3335766,13 L76,13 L76,78 L79.3335766,78 C82.5279653,78 85.2710424,76.8837141 87.5628078,74.6486521 C89.8538436,72.4146572 91,69.7400888 91,66.6249466 L91,24.3752312 C90.9998176,21.2611563 89.8536612,18.5865878 87.5628078,16.3520594 L87.5628078,16.3520594 Z" />
    </g>
  </g>
</svg>
