<svg
  viewBox="0 0 176 203"
  version="1.1"
  xmlns="http://www.w3.org/2000/svg"
  xmlns:xlink="http://www.w3.org/1999/xlink"
>
  <g transform="translate(88.500000, 102.000000) rotate(30.000000) translate(-88.500000, -102.000000) translate(-13.000000, 14.000000)">
    <path d="M50.518,175.535 L151.556,175.535 L202.071,88.035 L151.556,0.535 L50.518,0.535 L0,88.035 L50.518,175.535 L50.518,175.535 Z M59.178,15.535 L142.896,15.535 L184.75,88.035 L142.896,160.535 L59.178,160.535 L17.32,88.035 L59.178,15.535 Z M143.739637,105 C145.8449,100.120482 147,94.8296635 147,89.1462401 C147,77.6672206 142.137401,67.253843 134.461574,60 L107,89.221022 L143.739637,105 Z M95.6144695,92 L95.6144695,52 C73.7314882,52 56,69.9599441 56,92 C56,114.095948 73.7314882,132 95.6144695,132 C111.980578,132 125.966497,121.995342 132,107.798789 L95.6144695,92 Z M130,54.8616674 C122.947761,48.1173731 113.477612,44 103,44 L103,84 L130,54.8616674 Z" />
  </g>
</svg>
