<svg
  viewBox="0 0 444 490"
  version="1.1"
  xmlns="http://www.w3.org/2000/svg"
  xmlns:xlink="http://www.w3.org/1999/xlink"
>
  <g>
    <path d="M0.968,122.5 L0.968,367.5 L222,490 L443.032,367.5 L443.032,122.5 L222,0 L0.968,122.5 Z M410.968,349.500546 L220.968,454 L30.968,349.500546 L30.968,140.499454 L220.968,36 L410.968,140.499454 L410.968,349.500546 Z"></path>
    <path d="M304.906517,320.647022 C304.087754,269.021944 297.340647,254.311599 245.709655,245 C245.709655,245 238.441802,254.254545 221.501882,254.254545 C204.561963,254.254545 197.292855,245 197.292855,245 C146.225272,254.210031 139.067842,268.702194 138.126736,318.969906 C138.049565,323.074608 138.013803,323.290282 138,322.813793 C138.003137,323.706583 138.006901,325.357994 138.006901,328.237618 C138.006901,328.237618 150.299009,353 221.501882,353 C292.703501,353 304.996863,328.237618 304.996863,328.237618 C304.996863,326.387461 304.998118,325.10094 305,324.225705 C304.986197,324.520376 304.958591,323.949216 304.906517,320.647022 L304.906517,320.647022 Z"></path>
    <path d="M266,191.500313 C266,161.952528 259.53213,138 222.000624,138 C184.469119,138 178,161.952528 178,191.500313 C178,221.047472 197.700216,245 222.000624,245 C246.299784,245 266,221.047472 266,191.500313 Z"></path>
  </g>
</svg>
