<svg
  viewBox="0 0 176 203"
  version="1.1"
  xmlns="http://www.w3.org/2000/svg"
  xmlns:xlink="http://www.w3.org/1999/xlink"
>
  <g transform="translate(88.500000, 102.000000) rotate(30.000000) translate(-88.500000, -102.000000) translate(-13.000000, 14.000000)">
    <path d="M50.518,175.535 L151.556,175.535 L202.071,88.035 L151.556,0.535 L50.518,0.535 L4.26325641e-14,88.035 L50.518,175.535 Z M59.178,15.535 L142.896,15.535 L184.75,88.035 L142.896,160.535 L59.178,160.535 L17.32,88.035 L59.178,15.535 Z"/>
    <g transform="translate(111.427805, 82.035000) rotate(-30.000000) translate(-111.427805, -82.035000) translate(61.427805, 43.035000)" stroke-width="1">
      <rect x="12.4664016" y="17.2256947" width="52.0143141" height="5.1888855"></rect>
      <polygon points="49.5355865 34.9626565 12.4664016 34.9626565 12.4664016 40.151542 44.1793241 40.151542"></polygon>
      <polygon points="12.4664016 57.9016031 37.5622266 57.9016031 38.6815109 52.7041832 12.4664016 52.7041832"></polygon>
      <path d="M77.9206759,13.0129008 L77.9206759,8.50477863 C77.9163022,3.86824427 74.1125249,0.0750229008 69.4681909,0.0750229008 L8.45248509,0.0750229008 C3.80377734,0.0750229008 0,3.86824427 0,8.50477863 L0,69.4223817 C0,74.0632824 3.80377734,77.8606718 8.45248509,77.8606718 L69.4725646,77.8606718 C74.1168986,77.8606718 77.9206759,74.0632824 77.9206759,69.4223817 L77.9206759,40.5796489 L92.1838966,24.1482443 L78.5208748,12.3236031 L77.9206759,13.0129008 L77.9206759,13.0129008 Z M71.5222664,70.6209618 L6.39403579,70.6209618 L6.39403579,14.7511298 L6.39403579,8.90291603 L71.5180915,8.90291603 L71.5180915,14.7511298 L71.5180915,20.3895573 L48.7079523,46.6761527 L62.3622266,58.5095267 L71.5308151,47.947771 L71.5308151,70.6253282 L71.5222664,70.6253282 L71.5222664,70.6209618 L71.5222664,70.6209618 Z" />
      <path d="M98.7667992,11.9596031 L89.6624254,4.09073282 C88.4186879,3.00329771 86.639165,2.97769466 85.7341948,4.02225954 L80.0306163,10.5939084 L93.7021869,22.4143817 L99.3972167,15.8427328 C100.319085,14.8023359 100.02326,13.0343359 98.7667992,11.9596031 L98.7667992,11.9596031 Z" />
      <polygon points="42.9184891 65.9502901 43.617495 66.5494809 60.8270378 60.2947939 47.159841 48.4657863"></polygon>
    </g>
  </g>
</svg>
