<svg
  viewBox="0 0 444 490"
  version="1.1"
  xmlns="http://www.w3.org/2000/svg"
  xmlns:xlink="http://www.w3.org/1999/xlink"
>
  <g fill-rule="evenodd">
    <path d="M0.968,122.5 L0.968,367.5 L222,490 L443.032,367.5 L443.032,122.5 L222,0 L0.968,122.5 Z M280.260867,130.048063 L250.279051,130 C216.595509,130 194.827724,152.313442 194.827724,186.849412 L194.827724,213.060797 L164.682349,213.060797 C162.077431,213.060797 159.968,215.170781 159.968,217.773415 L159.968,255.750726 C159.968,258.35336 162.079836,260.460941 164.682349,260.460941 L194.827724,260.460941 L194.827724,356.289785 C194.827724,358.892419 196.937155,361 199.542073,361 L238.873213,361 C241.478131,361 243.587562,358.890016 243.587562,356.289785 L243.587562,260.460941 L278.834536,260.460941 C281.439454,260.460941 283.548885,258.35336 283.548885,255.750726 L283.563316,217.773415 C283.563316,216.523766 283.065423,215.326987 282.182686,214.44262 C281.299948,213.558253 280.097308,213.060797 278.846562,213.060797 L243.587562,213.060797 L243.587562,190.841079 C243.587562,180.161387 246.134753,174.739833 260.05892,174.739833 L280.256056,174.732624 C282.858569,174.732624 284.968,172.62264 284.968,170.022409 L284.968,134.758278 C284.968,132.160451 282.860975,130.05287 280.260867,130.048063 Z" />
  </g>
</svg>
