<svg
  viewBox="0 0 97.861 97.861"
  version="1.1"
  xmlns="http://www.w3.org/2000/svg"
  xmlns:xlink="http://www.w3.org/1999/xlink"
>
<g>
  <path d="M87.494,0.763C87.115,0.282,86.535,0,85.923,0H32.411c-0.924,0-1.727,0.632-1.944,1.53l-2.204,9.115c-0.144,0.596-0.007,1.225,0.373,1.707c0.379,0.481,0.958,0.763,1.571,0.763H49.01l-17.2,71.631H14.145c-0.924,0-1.727,0.633-1.944,1.529l-2.205,9.115c-0.144,0.597-0.007,1.226,0.373,1.707c0.379,0.481,0.958,0.764,1.571,0.764h53.512c0.924,0,1.727-0.633,1.943-1.53l2.204-9.114c0.144-0.597,0.007-1.226-0.373-1.707c-0.379-0.481-0.958-0.764-1.571-0.764H49.133l17.199-71.631h17.385c0.924,0,1.727-0.632,1.943-1.529l2.205-9.115C88.01,1.874,87.873,1.245,87.494,0.763z"/>
</g>
</svg>
