<svg
  viewBox="0 0 444 490"
  version="1.1"
  xmlns="http://www.w3.org/2000/svg"
  xmlns:xlink="http://www.w3.org/1999/xlink"
>
  <g fill-rule="evenodd">
    <path d="M0.968,122.5 L0.968,367.5 L222,490 L443.032,367.5 L443.032,122.5 L222,0 L0.968,122.5 Z M142.092699,138 L142.067285,138 C134.332692,138 127.0386,141.012921 121.53404,146.480736 C116.011268,151.963403 112.968004,159.238122 112.968004,166.965627 C112.964191,174.863299 116.072684,182.2649 121.703887,187.798066 C127.165244,193.157245 134.614359,196.166772 141.836022,195.992786 C142.045684,195.996605 142.255345,196 142.468395,196 C149.707848,196 156.875296,193.045216 162.213821,187.830741 C167.841213,182.337465 170.949705,174.96472 170.967918,167.070443 C170.986131,159.350151 167.971669,152.0644 162.48871,146.549481 C157.009141,141.041777 149.765875,138.007214 142.092699,138 Z M157.039459,203 L127.587041,203 C121.733015,203 116.968,207.903227 116.968,213.926303 L116.968,341.124386 C116.968,347.0201 121.973357,352 127.896541,352 L157.039459,352 C162.962643,352 167.968,347.118497 167.968,341.346311 L167.968,213.904579 C167.968,207.994382 162.96307,203 157.039459,203 Z M280.68949,200 L273.051516,200 C258.975641,200 245.4724,205.985832 236.718042,215.873014 L236.718042,210.857113 C236.718042,207.270448 233.056658,203.618896 229.467915,203.618896 L193.218127,203.618896 C189.865151,203.618896 185.968,206.586366 185.968,210.411801 L185.968,345.448835 C185.968,349.288691 189.788686,351.96692 193.218127,351.970313 L233.093191,351.981339 C236.522633,351.981339 240.343319,349.30311 240.343319,345.459862 L240.343319,267.444298 C240.343319,255.675358 249.083233,246.356054 260.240706,246.22967 C265.913962,246.102862 271.274987,248.33578 275.288109,252.349519 C278.604977,255.660938 280.217958,260.495746 280.217958,267.133429 L280.217958,344.761784 C280.217958,348.348448 283.879342,352 287.468085,352 L323.717873,352 C327.306616,352 330.968,348.348448 330.968,344.761784 L330.968,251.354142 C330.968425,222.557348 308.881173,200 280.68949,200 Z" />
  </g>
</svg>
