<svg
  viewBox="0 0 444 490"
  version="1.1"
  xmlns="http://www.w3.org/2000/svg"
  xmlns:xlink="http://www.w3.org/1999/xlink"
>
  <g fill-rule="evenodd">
    <path d="M0.968,122.5 L0.968,367.5 L222,490 L443.032,367.5 L443.032,122.5 L222,0 L0.968,122.5 Z M221.994936,281.19132 L190.892804,254 L101.968,330.139283 C105.200323,333.134632 109.56396,335 114.37653,335 L329.613342,335 C334.407955,335 338.753634,333.134632 341.968,330.139283 L253.097068,254 L221.994936,281.19132 Z M341.968,159.878 C338.735919,156.854 334.390565,155 329.560399,155 L114.339689,155 C109.545435,155 105.200081,156.872 101.968,159.914 L221.950044,263 L341.968,159.878 Z M95.968,170 L95.968,320 L182.968,245.84858 L95.968,170 Z M260.968,245.875346 L347.968,320 L347.968,170 L260.968,245.875346 Z"/>
  </g>
</svg>
