<svg
  viewBox="0 0 444 490"
  version="1.1"
  xmlns="http://www.w3.org/2000/svg"
  xmlns:xlink="http://www.w3.org/1999/xlink"
>
  <g fill-rule="evenodd">
    <path d="M0.968,122.5 L0.968,367.5 L222,490 L443.032,367.5 L443.032,122.5 L222,0 L0.968,122.5 Z M222.46856,115 C174.772021,115 135.968,153.876999 135.968,201.662679 C135.968,220.909135 148.235146,252.287456 173.468353,297.591172 C191.317284,329.633784 208.872525,356.351402 209.610112,357.472779 L222.46856,377 L235.326449,357.47334 C236.064596,356.351402 253.620958,329.634345 271.467647,297.591733 C296.701975,252.287456 308.968,220.909696 308.968,201.66324 C308.96856,153.876999 270.164539,115 222.46856,115 Z M221.968,245 C197.115625,245 176.968,224.852937 176.968,200 C176.968,175.147063 197.115625,155 221.968,155 C246.820375,155 266.968,175.147063 266.968,200 C266.968,224.852937 246.819812,245 221.968,245 Z" />
  </g>
</svg>
