<svg
  viewBox="0 0 444 490"
  version="1.1"
  xmlns="http://www.w3.org/2000/svg"
  xmlns:xlink="http://www.w3.org/1999/xlink"
>
  <g>
    <path d="M0.968,122.5 L0.968,367.5 L222,490 L443.032,367.5 L443.032,122.5 L222,0 L0.968,122.5 Z M410.968,349.500546 L220.968,454 L30.968,349.500546 L30.968,140.499454 L220.968,36 L410.968,140.499454 L410.968,349.500546 Z" />
    <path d="M245.174342,183.439399 C255.531511,189.950262 262.79411,200.967998 264.116361,213.757092 C268.340297,215.735856 273.028279,216.873786 277.998602,216.873786 C296.143916,216.873786 310.850817,202.12835 310.850817,183.938294 C310.850817,165.745436 296.143916,151 277.998602,151 C260.026607,151.005606 245.448297,165.48758 245.174342,183.439399 L245.174342,183.439399 Z M223.652115,250.87994 C241.797429,250.87994 256.50433,236.131701 256.50433,217.941646 C256.50433,199.75159 241.794634,185.006154 223.652115,185.006154 C205.509597,185.006154 190.794309,199.754393 190.794309,217.944449 C190.794309,236.134504 205.509597,250.87994 223.652115,250.87994 L223.652115,250.87994 Z M237.58747,253.124968 L209.711169,253.124968 C186.517259,253.124968 167.647922,272.04655 167.647922,295.301232 L167.647922,329.481159 L167.734581,330.01649 L170.082766,330.753622 C192.217197,337.687705 211.447148,340 227.275028,340 C258.189991,340 276.108873,331.162828 277.213079,330.599469 L279.407513,329.486765 L279.642331,329.486765 L279.642331,295.301232 C279.650718,272.04655 260.78138,253.124968 237.58747,253.124968 L237.58747,253.124968 Z M291.939548,219.121617 L264.278497,219.121617 C263.979384,230.217831 259.255061,240.209749 251.782803,247.396082 C272.399301,253.542583 287.483589,272.710809 287.483589,295.351682 L287.483589,305.884537 C314.795208,304.881141 330.533633,297.120238 331.570748,296.59892 L333.765182,295.483413 L334,295.483413 L334,261.292275 C334,238.040396 315.130663,219.121617 291.939548,219.121617 L291.939548,219.121617 Z M166.006989,216.879391 C172.433745,216.879391 178.413229,214.998725 183.478597,211.795145 C185.088781,201.265093 190.718832,192.063559 198.761363,185.796539 C198.794908,185.179927 198.853613,184.56892 198.853613,183.946703 C198.853613,165.753845 184.143916,151.008408 166.006989,151.008408 C147.858879,151.008408 133.154773,165.753845 133.154773,183.946703 C133.154773,202.131152 147.858879,216.879391 166.006989,216.879391 L166.006989,216.879391 Z M195.510246,247.396082 C188.074329,240.246185 183.366779,230.30752 183.022938,219.278573 C181.997005,219.202898 180.982254,219.121617 179.936753,219.121617 L152.063247,219.121617 C128.869337,219.121617 110,238.040396 110,261.292275 L110,295.477808 L110.086659,296.004731 L112.434843,296.747468 C130.191589,302.305385 146.039037,304.867127 159.803869,305.674329 L159.803869,295.351682 C159.80946,272.710809 174.888157,253.548189 195.510246,247.396082 L195.510246,247.396082 Z" />
  </g>
</svg>
