<svg
  viewBox="0 0 176 203"
  version="1.1"
  xmlns="http://www.w3.org/2000/svg"
  xmlns:xlink="http://www.w3.org/1999/xlink"
>
  <g transform="translate(-44.000000, -25.000000)">
    <g transform="translate(132.500000, 127.000000) rotate(30.000000) translate(-132.500000, -127.000000) translate(31.000000, 39.000000)">
      <path d="M50.518,175.535 L151.556,175.535 L202.071,88.035 L151.556,0.535 L50.518,0.535 L4.26325641e-14,88.035 L50.518,175.535 Z M59.178,15.535 L142.896,15.535 L184.75,88.035 L142.896,160.535 L59.178,160.535 L17.32,88.035 L59.178,15.535 Z"/>
      <g transform="translate(101.035500, 88.035000) rotate(-30.000000) translate(-101.035500, -88.035000) translate(69.035500, 41.535000)">
        <path d="M32,0 C14.3243636,0 0,14.310375 0,31.96875 C0,43.6838437 10.7287273,56.0993438 14.6356364,67.0035937 C20.4625455,83.2640625 19.8167273,93 32,93 C44.3636364,93 43.5345455,83.3105625 49.3643636,67.0704375 C53.2829091,56.1429375 64,43.59375 64,31.96875 C64,14.310375 49.6698182,0 32,0 L32,0 Z M39.5403636,78.98025 L25.1170909,80.7792187 C24.6021818,79.2912187 24.0494545,77.550375 23.3774545,75.2776875 C23.3687273,75.248625 23.3570909,75.2166562 23.3512727,75.1875938 L41.3527273,72.9410625 C41.0967273,73.7984062 40.8232727,74.6993437 40.5847273,75.5072813 C40.2036364,76.8121875 39.8632727,77.945625 39.5403636,78.98025 L39.5403636,78.98025 Z M22.5047273,72.388875 C21.9752727,70.6393125 21.3789091,68.79675 20.7156364,66.84375 L43.3076364,66.84375 C42.9498182,67.8870938 42.592,68.9333438 42.2836364,69.9214688 L22.5047273,72.388875 L22.5047273,72.388875 Z M32,87.1875 C29.0530909,87.1875 27.6974545,86.8474687 26.1905455,83.5546875 L38.5192727,82.0114688 C36.7330909,86.8184063 35.4327273,87.1875 32,87.1875 L32,87.1875 Z M45.5912727,61.03125 L18.4407273,61.03125 C16.992,57.8925 15.2523636,54.75375 13.536,51.6818437 C9.73963636,44.89575 5.81818182,37.8771562 5.81818182,31.96875 C5.81818182,17.5450313 17.5621818,5.8125 32,5.8125 C46.4378182,5.8125 58.1818182,17.5450313 58.1818182,31.96875 C58.1818182,37.8335625 54.2545455,44.8899375 50.4552727,51.7167188 C48.7563636,54.777 47.0283636,57.9099375 45.5912727,61.03125 L45.5912727,61.03125 Z" />
        <path d="M32,14.53125 C22.3738182,14.53125 14.5454545,22.3519687 14.5454545,31.96875 C14.5454545,32.770875 15.1970909,33.421875 16,33.421875 C16.8029091,33.421875 17.4545455,32.770875 17.4545455,31.96875 C17.4545455,23.9562187 23.9796364,17.4375 32,17.4375 C32.8029091,17.4375 33.4545455,16.7865 33.4545455,15.984375 C33.4545455,15.18225 32.8,14.53125 32,14.53125 L32,14.53125 Z" />
      </g>
    </g>
  </g>
</svg>
