<svg
  viewBox="0 0 444 490"
  version="1.1"
  xmlns="http://www.w3.org/2000/svg"
  xmlns:xlink="http://www.w3.org/1999/xlink"
>
  <g fill-rule="evenodd">
    <path d="M0.968,122.5 L0.968,367.5 L222,490 L443.032,367.5 L443.032,122.5 L222,0 L0.968,122.5 Z M344.968,169.544831 C335.950624,173.540291 326.27511,176.249966 316.109195,177.459693 C326.489285,171.244133 334.434984,161.385383 338.200865,149.674014 C328.4641,155.430022 317.716509,159.609623 306.264742,161.875358 C297.094441,152.093066 284.050572,146 269.582738,146 C241.826434,146 219.321226,168.504034 219.321226,196.243678 C219.321226,200.177891 219.765189,204.020434 220.622691,207.694848 C178.858129,205.597241 141.824237,185.588718 117.037963,155.185034 C112.705219,162.594709 110.240402,171.228521 110.240402,180.444779 C110.240402,197.881733 119.120066,213.267115 132.592686,222.268409 C124.355948,221.992998 116.609212,219.727262 109.827264,215.961178 L109.827264,216.588859 C109.827264,240.9299 127.15784,261.244658 150.137437,265.868199 C145.927193,267.001066 141.487561,267.628747 136.894604,267.628747 C133.64915,267.628747 130.510583,267.307301 127.433265,266.694832 C133.8325,286.672931 152.388077,301.200857 174.37286,301.599162 C157.179997,315.07108 135.501465,323.077611 111.955405,323.077611 C107.898487,323.077611 103.902418,322.832624 99.968,322.388684 C122.212995,336.672022 148.622197,345 177.006214,345 C269.461038,345 319.998376,268.424957 319.998376,202.015298 L319.829838,195.509116 C329.704315,188.466522 338.246902,179.618146 344.968,169.544831 Z" />
  </g>
</svg>
