<svg
  viewBox="0 0 444 490"
  version="1.1"
  xmlns="http://www.w3.org/2000/svg"
  xmlns:xlink="http://www.w3.org/1999/xlink"
>
  <g fill-rule="evenodd">
    <path d="M0.968,122.5 L0.968,367.5 L222,490 L443.032,367.5 L443.032,122.5 L222,0 L0.968,122.5 Z M222.963659,123 C155.149789,123 99.968,178.175055 99.968,246 C99.968,313.824945 155.149789,369 222.963659,369 C290.786211,369 345.968,313.833627 345.968,246 C345.968,178.175055 290.786211,123 222.963659,123 Z M198.580533,165.260555 L204.111603,166.73462 L204.111603,159.905308 L206.267217,158 L208.573222,162.202654 L212.968,167.181544 L211.188366,169.471049 L204.103248,171 L204.103248,166.954162 L198.572178,171 L196.968,168.694813 L198.580533,165.260555 Z M109.968,242 C110.540949,218.45229 118.553552,196.750954 131.783462,179 C132.226196,179.060115 132.538713,179.171756 132.538713,179.171756 C132.538713,180.846374 130.229556,181.25 132.538713,185.458015 C135.490268,190.902672 132.955403,193.418893 132.955403,193.418893 C132.955403,193.418893 125.750137,198.442748 124.482705,199.284351 C123.215272,200.117366 119.829665,204.72042 121.939159,203.466603 C124.057334,202.212786 126.592198,200.958969 124.482705,204.308206 C122.36453,207.666031 118.553552,213.102099 117.711491,215.206107 C116.86943,217.310115 112.63308,222.325382 112.63308,224.841603 C112.63308,227.357824 110.940277,232.381679 111.365648,234.485687 C111.652122,235.937023 110.705889,240.230916 109.968,242 Z M153.86262,312.863189 L152.164454,319.169398 L153.86262,324.238586 C153.86262,324.238586 151.315371,326.349306 149.643196,326.349306 C148.083656,326.349306 147.555145,327.326812 145.848314,326.885637 C129.733061,311.851081 118.036507,292.188513 112.968,270 C113.513839,270.147058 114.29361,270.536331 115.393952,271.505186 C116.988149,272.889264 117.932538,273.598605 120.046582,274.455003 C122.151961,275.320053 123.001045,276.557073 125.53963,277.828695 C128.078216,279.100318 127.237796,278.26122 130.608137,282.058786 C133.995806,285.847702 133.571264,285.847702 134.411683,287.958422 C135.252102,290.069142 136.525727,292.179862 137.37481,293.451484 C138.223894,294.723107 140.753815,295.562204 142.018776,296.409953 C143.283736,297.257701 145.39778,298.096799 146.662741,298.096799 C147.936366,298.096799 151.739912,301.894365 153.853956,302.300938 C155.968,302.742113 155.968,306.963553 155.968,306.963553 L153.86262,312.863189 Z M171.40285,150.043624 C165.80994,155.77349 167.097897,154.137584 165.80994,155.77349 C164.521983,157.409396 164.945421,157.812081 161.928425,159.86745 C158.920251,161.897651 157.632294,164.355705 157.632294,164.355705 L152.895082,166 L149.03121,164.355705 C149.03121,164.355705 145.573133,165.588926 146.005393,163.944631 C146.128895,163.516779 146.305328,163.063758 146.508225,162.58557 C157.041245,153.340604 169.365055,145.991611 182.968,141 C181.627113,142.644295 180.003934,144.313758 180.003934,144.313758 C180.003934,144.313758 176.99576,144.305369 171.40285,150.043624 Z M300.071857,302.160578 C299.623786,303.806753 298.789143,306.723809 298.358643,308.387042 C297.928143,310.050276 295.784428,313.385272 294.5105,314.212624 C293.227786,315.057035 291.0665,317.55615 289.792571,317.965561 C288.518643,318.374972 287.648857,315.031447 288.079357,313.385272 C288.527428,311.70498 290.653571,307.141749 290.653571,307.141749 C290.653571,307.141749 291.084071,304.659693 291.514571,302.979401 C291.962643,301.341756 297.0935,299.243523 297.0935,299.243523 L300.5375,293 C300.5375,293 300.968,294.680292 300.968,295.925585 C300.932857,297.153819 300.502357,300.497345 300.071857,302.160578 Z M300.241266,261.035379 C299.390784,262.291314 296.873704,265.637604 295.62805,267.315051 C294.382395,268.992497 292.707205,271.512968 290.190125,273.611927 C287.673044,275.702283 287.655863,277.784037 286.42739,279.495893 C285.173145,281.173339 283.480774,284.941142 283.480774,284.941142 C283.480774,284.941142 284.331255,293.345579 284.735018,295.023026 C285.173145,296.700472 281.814174,301.302697 281.814174,301.302697 L278.042849,305.0705 L272.991506,311.788888 L273.39527,318.059957 C273.39527,318.059957 269.589582,321.00194 267.484856,322.679387 C265.405902,324.356833 265.723758,325.62137 264.057159,327.298816 C262.407741,328.959058 257.949158,331.901041 256.273968,332.331156 C254.607368,332.76127 247.494253,334 247.494253,334 L247.494253,330.232197 L245.166169,326.03428 C245.166169,326.03428 242.838084,321.010543 241.575248,319.315892 C240.321003,317.65565 240.321003,315.117974 238.233459,313.03622 C236.137323,310.937261 235.115028,309.268417 234.694083,307.995278 C234.264547,306.739344 235.003348,302.971541 235.003348,302.971541 C235.003348,302.971541 236.618404,298.352112 237.451703,296.683268 C238.302184,295.005821 237.434522,292.48535 236.57545,290.790699 C235.73356,289.113253 235.321205,284.906733 235.321205,283.668003 C235.321205,282.412069 231.936462,280.287304 230.690808,279.048574 C229.436563,277.784037 229.848917,276.106591 229.848917,274.429144 C229.848917,272.7603 228.594672,268.96669 228.998436,266.041912 C229.419381,263.099929 225.235701,265.181683 222.727212,266.041912 C220.210131,266.867732 218.543532,265.181683 218.543532,262.661212 C218.543532,260.157946 213.938906,262.256904 211.000881,263.917146 C208.054264,265.585991 204.712475,265.585991 201.344913,266.841925 C198.003123,268.097859 196.336524,265.585991 196.336524,265.585991 C196.336524,265.585991 193.389907,263.06552 191.310954,261.818188 C189.206228,260.562253 187.110092,258.050385 185.426311,255.942824 C183.759712,253.835263 179.558851,247.529785 179.155087,245.035121 C178.734142,242.506047 179.155087,240.819999 179.155087,237.886618 C179.155087,234.953237 179.155087,233.275791 179.567441,231.176832 C179.988386,229.077873 181.242631,226.557402 182.505467,224.458444 C183.759712,222.359485 188.372928,219.847617 189.618582,219.004592 C190.872827,218.17017 193.810853,215.658302 193.810853,213.972253 C193.810853,212.294806 195.494634,211.460384 196.319343,209.774335 C197.169824,208.096889 200.099259,203.907574 203.870584,205.58502 C203.870584,205.58502 207.212374,205.17211 208.466619,204.750598 C209.720864,204.329086 213.071244,203.081754 214.729253,202.23873 C216.404443,201.395705 220.579532,201 220.579532,201 C220.579532,201 223.878368,202.31615 225.132613,202.31615 C226.386858,202.31615 230.48463,201.584956 230.48463,201.584956 C230.48463,201.584956 232.383179,207.666774 232.383179,208.931311 C232.383179,210.195848 233.637424,211.44318 235.750741,212.286204 C237.821104,213.120626 247.468481,215.219585 251.677933,211.864692 C252.640094,211.090486 255.844432,213.120626 255.844432,213.120626 C255.844432,213.120626 266.325108,215.219585 267.991708,216.475519 C269.675489,217.740056 272.604924,218.58308 273.446814,219.847617 C274.297295,221.103551 277.209549,224.879956 277.621903,226.13589 C278.06003,227.391825 280.156165,232.019856 280.577111,233.688701 C281.006647,235.366147 282.24371,239.564064 283.506546,241.663023 C284.760791,243.770584 291.899678,252.983636 294.399577,257.190156 L301.968,255.934222 C301.925046,256.00304 301.091747,259.788047 300.241266,261.035379 Z M331.379449,244.371952 C330.953814,242.685259 328.408695,236.807649 328.408695,236.807649 C328.408695,236.807649 325.863576,233.451474 324.169725,232.608127 C322.493247,231.764781 321.216344,229.66502 318.236904,227.995538 C315.26615,226.308845 314.00662,225.474104 311.478874,225.474104 C308.916381,225.474104 306.388635,222.109323 303.409195,220.431235 C300.438441,218.761753 300.012807,219.596494 300.012807,219.596494 C300.012807,219.596494 303.409195,224.630757 303.409195,225.887171 C303.409195,227.143586 307.213844,229.243347 311.053239,228.4 C311.053239,228.4 313.580986,233.021195 314.857889,234.27761 C316.134792,235.534024 314.432254,236.799044 311.887135,238.477131 C309.342016,240.146614 309.785023,239.733546 308.482061,240.98996 C307.213844,242.246375 302.983561,244.363347 301.706658,245.189482 C300.438441,246.024223 295.365575,248.545657 292.837829,246.024223 C291.578299,244.810837 291.969187,242.25498 291.143978,240.568287 C290.292709,238.890199 281.406508,225.878566 277.167538,220.009562 C276.420506,218.976892 274.622418,215.792829 273.362888,214.975299 C272.094672,214.123347 276.342328,214.123347 276.342328,214.123347 C276.342328,214.123347 276.342328,211.180239 275.908007,209.089084 C275.482373,206.989323 276.342328,204.054821 276.342328,204.054821 C276.342328,204.054821 272.103358,206.567649 270.817769,207.410996 C269.549552,208.254343 268.272649,205.741514 266.604858,203.633147 C264.911007,201.541992 263.199784,199.011952 262.791522,196.912191 C262.365888,194.821036 264.911007,193.977689 264.911007,193.977689 L268.715657,191.886534 C268.715657,191.886534 273.380261,191.051793 276.368387,191.464861 C279.321768,191.886534 283.986373,192.308207 283.986373,192.308207 C283.986373,192.308207 285.254589,189.3651 283.543366,188.108685 C281.866888,186.852271 278.027493,184.75251 276.351015,185.174183 C274.657164,185.587251 277.18491,183.074422 279.304395,181.396335 L274.605045,180.552988 C274.605045,180.552988 270.348702,182.652749 269.054427,183.074422 C267.78621,183.48749 265.597234,184.330837 263.877324,186.430598 C262.200846,188.530359 264.554864,191.464861 262.861013,192.308207 C261.184535,193.151554 260.029242,193.564622 258.752339,193.977689 C257.484123,194.399363 253.462313,193.977689 253.462313,193.977689 C249.08436,193.977689 251.881386,197.936255 253.019306,199.338964 L249.622918,195.242709 L247.112544,189.356494 C247.112544,189.356494 243.498996,186.843665 241.822518,186.008924 C240.111295,185.174183 234.899446,182.231076 234.899446,182.231076 L235.255589,186.008924 L240.154727,190.931315 L240.597734,191.043187 L243.603233,194.399363 L238.408757,194.821036 L238.408757,191.507888 C229.722343,190.234263 234.030805,188.926215 233.440128,188.521753 C232.180598,187.687012 229.010057,185.578645 229.010057,185.578645 C229.010057,185.578645 223.885073,186.413386 222.616856,186.843665 C221.339954,187.265339 220.940378,188.521753 218.403946,189.356494 C215.85014,190.199841 214.668787,191.456255 213.826205,192.712669 C212.983623,193.969084 210.212657,197.746932 208.536179,199.42502 C206.833642,201.111713 203.654414,200.681434 202.386198,200.681434 C201.109295,200.681434 194.968,199.003347 194.968,199.003347 L194.968,191.886534 C194.968,191.886534 195.819269,187.893546 195.393634,186.637131 L199.120106,186.01753 L205.313519,184.75251 L207.137666,183.48749 L209.743591,180.131315 C209.743591,180.131315 206.816269,178.031554 208.927068,175.097052 C209.943378,173.685737 213.600358,173.418964 215.294209,172.16255 C216.979374,170.906135 219.541866,170.062789 219.541866,170.062789 C219.541866,170.062789 222.512619,167.54996 225.474687,164.606853 C225.474687,164.606853 227.594172,163.341833 230.130605,162.498486 C230.130605,162.498486 237.340328,168.797769 238.617231,168.797769 C239.894134,168.797769 244.558739,165.863267 244.558739,165.863267 C244.558739,165.863267 245.826955,162.094024 245.418694,160.829004 C244.993059,159.57259 242.873574,155.373068 242.873574,155.373068 C242.873574,155.373068 241.605358,157.472829 240.345828,159.150916 C239.077611,160.829004 238.20897,162.928765 238.20897,162.928765 C238.20897,162.928765 232.25009,162.515697 231.850515,161.259283 C231.42488,159.994263 230.582298,157.928924 230.147978,156.681116 C229.739716,155.416096 226.343328,155.459124 223.815582,156.30247 C221.261776,157.145817 224.223843,151.775936 224.223843,151.775936 C224.223843,151.775936 226.777649,148.609084 228.462813,148.609084 C230.139291,148.609084 233.987373,146.457689 235.655164,146.044622 C237.340328,145.622948 242.44794,142.395857 244.550052,142.395857 C246.669537,142.395857 249.214657,142 250.500246,142 L256.832642,142 L265.718844,142.593785 C265.718844,142.593785 273.354202,146.036016 270.79171,147.722709 C270.79171,147.722709 273.779836,149.874104 275.048052,151.130518 C276.238091,152.318088 279.304395,150.201116 281.067738,149.228685 C312.764463,168.952669 333.968,203.891315 333.968,243.640478 C333.968,245.774661 333.785585,247.900239 333.663976,250 C332.856139,248.003506 331.674787,245.473466 331.379449,244.371952 Z" />
  </g>
</svg>
