<svg
  viewBox="0 0 253 176"
  version="1.1"
  xmlns="http://www.w3.org/2000/svg"
  xmlns:xlink="http://www.w3.org/1999/xlink"
>
  <g>
    <path d="M201.559998,175.539993 L252.070007,88.0399933 L201.559998,0.52999878 L50.518,0.535 L1.13686838e-13,88.035 L50.518,175.535 L201.559998,175.539993 L201.559998,175.539993 Z M192.899994,15.5400009 L234.75,88.035 L192.899994,160.539993 L59.178,160.535 L17.32,88.035 L59.178,15.535 L192.899994,15.5400009 L192.899994,15.5400009 Z"></path>
    <g transform="translate(50.000000, 46.000000)">
      <path d="M64.375,73 L55.5,76.25 C51.9166488,67.4999562 49.7083375,58.8750425 48.875,50.375 C44.3749775,48.9583262 40.3125181,48.25 36.6875,48.25 C33.0624819,48.25 29.7916812,48.3333325 26.875,48.5 C20.3749675,58.2500487 14.8333563,65.4166437 10.25,70 C5.66664375,74.5833563 2.541675,76.875 0.875,76.875 C0.29166375,76.875 0,74.6666887 0,70.25 C0,65.8333113 0.99999,62.3750125 3,59.875 C5.08334375,57.20832 7.99998125,54.7500113 11.75,52.5 C15.5833525,50.166655 18.2083262,48.2916738 19.625,46.875 C20.29167,46.20833 21.1874944,45.1875069 22.3125,43.8125 C23.4375056,42.4374931 24.7083262,40.7083437 26.125,38.625 C29.0416813,34.62498 31.666655,30.5416875 34,26.375 C36.2500113,22.37498 38.1249925,18.5208519 39.625,14.8125 C41.1250075,11.1041481 42.1249975,7.70834875 42.625,4.625 C45.0416787,4.20833125 47.6041531,3.66667 50.3125,3 C53.0208469,2.33333 55.9583175,1.5833375 59.125,0.75 C58.45833,4.83335375 57.9375019,8.74998125 57.5625,12.5 C57.1874981,16.2500187 57,19.8749825 57,23.375 C57,44.9584412 59.4583088,61.4999425 64.375,73 L64.375,73 Z M48.5,11 C45.6666525,17.2500312 42.8541806,23.04164 40.0625,28.375 C37.2708194,33.70836 34.5000138,38.70831 31.75,43.375 C36.9166925,42.9583313 42.2499725,42.8333325 47.75,43 L47.75,36 C47.75,33.99999 47.9999975,25.66674 48.5,11 L48.5,11 Z M107.25,18.125 C110.416682,13.45831 114.958304,9.45835 120.875,6.125 C126.958364,2.6249825 131.708316,0.875 135.125,0.875 C137.375011,0.875 139.958319,1.87499 142.875,3.875 C145.708348,5.7083425 147.125,7.66665625 147.125,9.75 C147.125,16.0000312 145.312518,21.4791431 141.6875,26.1875 C138.062482,30.8958569 132.708369,34.4999875 125.625,37 L125.5,38.125 C126.750006,38.0416663 127.937494,38 129.0625,38 L132.125,38 C134.958348,38 137.291657,38.166665 139.125,38.5 C140.958343,38.833335 142.416661,39.33333 143.5,40 C144.583339,40.66667 145.333331,41.499995 145.75,42.5 C146.166669,43.500005 146.375,44.7083262 146.375,46.125 C146.375,54.2917075 142.500039,61.4166362 134.75,67.5 C127.083295,73.5833638 117.791721,76.625 106.875,76.625 C99.7916312,76.625 94.0625219,75.7291756 89.6875,73.9375 C85.3124781,72.1458244 82.958335,69.6666825 82.625,66.5 C87.7916925,57.3332875 91.6249875,49.3750338 94.125,42.625 C96.7083463,35.8749662 98.2499975,30.2500225 98.75,25.75 C99.083335,23.5833225 99.3124994,20.7291844 99.4375,17.1875 C99.5625006,13.6458156 99.625,9.4583575 99.625,4.625 L109.125,1.375 C108.958332,6.04169 108.333339,11.6249675 107.25,18.125 L107.25,18.125 Z M137.625,11.875 L128.25,6.5 C123.749977,9.3333475 119.770851,12.4583162 116.3125,15.875 C112.854149,19.2916837 109.916679,23.0833125 107.5,27.25 C102.666642,35.25004 98.3750187,47.9999125 94.625,65.5 C98.8750213,67.9166788 103.33331,69.624995 108,70.625 C110.416679,71.0416687 112.333326,71.3749988 113.75,71.625 C115.166674,71.8750012 116.166664,72 116.75,72 C120.08335,72 124.208309,69.3750262 129.125,64.125 C133.958358,58.9583075 136.375,54.2500213 136.375,50 C136.375,48.5833262 135.625008,46.54168 134.125,43.875 C131.45832,42.208325 127.666691,41.375 122.75,41.375 L120.25,41.375 C119.249995,41.375 118.166673,41.4166663 117,41.5 L116.375,37 C127.208388,34.8333225 134.29165,26.4584062 137.625,11.875 L137.625,11.875 Z"></path>
    </g>
  </g>
</svg>
